<svg width="79" height="56" viewBox="0 0 79 56" fill="none" xmlns="http://www.w3.org/2000/svg">
<path d="M40.1277 37.5642C40.11 41.1008 39.2173 44.2133 37.449 46.9011C35.6984 49.5713 33.2751 51.6578 30.1805 53.1609C27.1036 54.6462 23.5578 55.3894 19.5438 55.3894C16.0603 55.3894 12.8772 54.7881 9.99493 53.5857C7.11265 52.3656 4.81373 50.4555 3.09845 47.8562C1.66446 45.6683 0.835743 42.936 0.612823 39.6603C0.538053 38.5615 1.44186 37.6697 2.54312 37.6697H13.376C14.4503 37.6697 15.3035 38.5262 15.5175 39.5789C15.6322 40.1434 15.7898 40.6564 15.9901 41.1179C16.4144 42.055 16.9975 42.7625 17.7401 43.24C18.5004 43.6998 19.4202 43.9304 20.4988 43.9304C21.5952 43.9304 22.5149 43.6911 23.2576 43.2136C24.018 42.7362 24.5922 42.0287 24.9813 41.0916C25.3703 40.1367 25.5739 38.9611 25.5916 37.5642V2.32202C25.5916 1.21745 26.487 0.322021 27.5916 0.322021H38.1277C39.2323 0.322021 40.1277 1.21745 40.1277 2.32202V37.5642Z" fill="#282727"/>
<path d="M46.7958 13.3728C50.7921 13.3729 54.2492 14.0976 57.1669 15.5476C60.1024 16.98 62.3741 19.0143 63.9833 21.6492C65.2802 23.7584 66.0603 26.1662 66.3235 28.8726C66.4308 29.9759 65.5222 30.8796 64.4137 30.8796H54.6691C53.6347 30.8796 52.7974 30.0827 52.5497 29.0783C52.235 27.8024 51.7139 26.7758 50.9863 25.9988C49.9607 24.8671 48.6345 24.3016 47.0077 24.3015C45.7345 24.3015 44.6199 24.6731 43.665 25.4158C42.7103 26.1408 41.9678 27.246 41.4374 28.7312C40.907 30.1989 40.6415 32.0471 40.6415 34.2751C40.6416 36.5031 40.9069 38.3601 41.4374 39.8455C41.9679 41.3129 42.7102 42.4182 43.665 43.1609C44.6199 43.8859 45.7345 44.2488 47.0077 44.2488C48.0863 44.2488 49.041 44.0006 49.872 43.5056C50.7031 42.9928 51.3758 42.2497 51.8886 41.2771C52.173 40.7462 52.3962 40.1542 52.5584 39.5012C52.8108 38.4856 53.6518 37.6697 54.6983 37.6697H64.394C65.5101 37.6697 66.421 38.5853 66.3072 39.6956C66.0249 42.45 65.2415 44.9051 63.957 47.0603C62.3655 49.7126 60.1109 51.7636 57.1933 53.2136C54.2933 54.6636 50.8275 55.3894 46.7958 55.3894C42.3749 55.3894 38.59 54.5131 35.4423 52.7625C32.2948 50.9941 29.881 48.536 28.2011 45.3884C26.5213 42.2231 25.6816 38.5538 25.6816 34.3806C25.6816 30.2074 26.5212 26.5468 28.2011 23.3992C29.881 20.2339 32.2947 17.7758 35.4423 16.0251C38.59 14.2568 42.3749 13.3728 46.7958 13.3728Z" fill="#009841"/>
<path d="M72.3879 43.6428C73.9752 43.6428 75.3749 44.227 76.5871 45.3958C77.8138 46.5647 78.435 47.9722 78.4494 49.6174C78.4349 50.7428 78.1388 51.7672 77.5617 52.6907C76.9989 53.5998 76.2628 54.3288 75.3537 54.8772C74.4445 55.4111 73.4558 55.678 72.3879 55.678C70.7139 55.678 69.278 55.0939 68.0803 53.925C66.897 52.7417 66.312 51.3058 66.3264 49.6174C66.3119 47.9722 66.8969 46.5647 68.0803 45.3958C69.278 44.2269 70.7139 43.6428 72.3879 43.6428Z" fill="#328118"/>
</svg>
