<svg width="520" height="521" viewBox="0 0 520 521" fill="none" xmlns="http://www.w3.org/2000/svg">
<path d="M263.754 323.016C263.639 345.904 257.86 366.046 246.416 383.441C235.086 400.722 219.408 414.227 199.381 423.954C179.468 433.567 156.521 438.374 130.543 438.374C107.998 438.374 87.3981 434.483 68.744 426.701C50.0899 418.805 35.2131 406.444 24.1122 389.621C14.832 375.462 9.47029 357.783 8.02801 336.586C7.54421 329.475 13.3933 323.703 20.5204 323.703H90.6282C97.5805 323.703 103.102 329.246 104.484 336.059C105.225 339.712 106.244 343.032 107.54 346.019C110.287 352.084 114.063 356.662 118.87 359.752C123.791 362.727 129.743 364.215 136.724 364.215C143.819 364.215 149.77 362.67 154.576 359.58C159.497 356.49 163.217 351.913 165.734 345.848C168.252 339.668 169.568 332.057 169.682 323.016V94.9434C169.682 87.7949 175.477 82 182.626 82H250.81C257.959 82 263.754 87.7949 263.754 94.9434V323.016Z" fill="#C6C6C6"/>
<path d="M306.905 166.459C332.769 166.459 355.142 171.151 374.025 180.535C393.023 189.805 407.729 202.966 418.143 220.018C426.537 233.669 431.585 249.252 433.288 266.768C433.982 273.908 428.102 279.757 420.928 279.757H357.865C351.171 279.757 345.751 274.599 344.148 268.099C342.111 259.842 338.737 253.199 334.028 248.171C327.391 240.846 318.807 237.184 308.278 237.184C300.038 237.184 292.828 239.588 286.648 244.394C280.469 249.086 275.663 256.239 272.229 265.852C268.796 275.351 267.079 287.31 267.079 301.729C267.079 316.149 268.796 328.166 272.229 337.779C275.663 347.278 280.469 354.431 286.648 359.237C292.828 363.929 300.038 366.275 308.278 366.275C315.259 366.275 321.44 364.673 326.818 361.469C332.197 358.15 336.545 353.343 339.864 347.049C341.705 343.612 343.151 339.781 344.203 335.556C345.838 328.983 351.281 323.703 358.054 323.703H420.8C428.024 323.703 433.919 329.629 433.182 336.814C431.355 354.638 426.285 370.524 417.972 384.471C407.672 401.638 393.08 414.913 374.197 424.298C355.429 433.682 332.998 438.374 306.905 438.374C278.295 438.374 253.804 432.709 233.434 421.38C213.063 409.935 197.441 394.028 186.569 373.657C175.697 353.172 170.261 329.425 170.261 302.417C170.261 275.408 175.697 251.718 186.569 231.347C197.441 210.862 213.063 194.955 233.434 183.625C253.804 172.181 278.295 166.459 306.905 166.459Z" fill="#009841"/>
<path d="M472.531 360.486C482.804 360.486 491.864 364.269 499.71 371.834C507.648 379.399 511.664 388.505 511.757 399.152C511.664 406.437 509.749 413.069 506.013 419.046C502.371 424.93 497.608 429.646 491.724 433.195C485.84 436.651 479.442 438.378 472.531 438.378C461.697 438.378 452.405 434.596 444.653 427.031C436.995 419.373 433.212 410.08 433.305 399.152C433.212 388.505 436.995 379.399 444.653 371.834C452.405 364.269 461.697 360.486 472.531 360.486Z" fill="#328118"/>
</svg>
